<?xml version="1.0" encoding="utf-8"?><svg xmlns="http://www.w3.org/2000/svg" xmlns:xlink="http://www.w3.org/1999/xlink"><symbol viewBox="0 0 415.979 415.978" id="test-icon"><path d="M412.762 119.011a12.498 12.498 0 0 0-9.283-4.13h-2.346c-2.904-26.221-25.189-46.685-52.172-46.685H210.488V55.898c0-6.903-5.597-12.5-12.5-12.5H52.5C23.552 43.398 0 66.95 0 95.898c0 .371.017.741.05 1.11l20 224.184c.005.063.012.126.018.188 3.199 30.624 24.27 51.2 52.433 51.2H343.48c27.082 0 47.633-19.862 52.354-50.603.031-.201.059-.404.078-.607l20-192.701a12.495 12.495 0 0 0-3.15-9.658zm-36.924-4.13h-137.85c-13.168 0-24.199-9.306-26.875-21.685h137.85c13.168 0 24.197 9.305 26.875 21.685zm-4.76 203.587c-1.154 7.209-6.426 29.112-27.6 29.112H72.5c-18.068 0-26.078-14.812-27.558-28.706L25.005 95.392c-1.138-14.935 12.5-26.994 27.495-26.994h132.989V87.38c0 28.948 23.552 52.5 52.5 52.5h151.625l-18.536 178.588z"/></symbol></svg>